<svg width="50" height="50" viewBox="0 0 50 50" fill="none" xmlns="http://www.w3.org/2000/svg">
<path d="M43.75 14.5834V35.4167C43.75 41.6667 40.625 45.8334 33.3333 45.8334H16.6667C9.375 45.8334 6.25 41.6667 6.25 35.4167V14.5834C6.25 8.33335 9.375 4.16669 16.6667 4.16669H33.3333C40.625 4.16669 43.75 8.33335 43.75 14.5834Z" stroke="#9572FC" stroke-width="1.5" stroke-miterlimit="10" stroke-linecap="round" stroke-linejoin="round"/>
<path d="M21.4583 31.8334L16.6667 36.625M16.7292 31.8959L21.5208 36.6875M33.8542 22.9167H16.1458C14.1458 22.9167 12.5 21.2709 12.5 19.2709V14.0625C12.5 12.0625 14.1458 10.4167 16.1458 10.4167H33.8542C35.8542 10.4167 37.5 12.0625 37.5 14.0625V19.2709C37.5 21.2709 35.8542 22.9167 33.8542 22.9167Z" stroke="#9572FC" stroke-width="1.5" stroke-miterlimit="10" stroke-linecap="round" stroke-linejoin="round"/>
<path d="M34.3542 31.9375H34.3958M30.1875 36.4583V36.4167" stroke="#9572FC" stroke-width="2" stroke-miterlimit="10" stroke-linecap="round" stroke-linejoin="round"/>
</svg>
