<svg width="31" height="31" viewBox="0 0 31 31" fill="none" xmlns="http://www.w3.org/2000/svg">
<g clip-path="url(#clip0_520_1857)">
<path d="M30 16.52C29.92 17.05 29.87 17.58 29.77 18.11C29.1462 21.6087 27.2515 24.7534 24.45 26.94C23.1774 27.9472 21.7393 28.7255 20.2 29.24C19.54 29.47 19.1 29.16 19.1 28.45C19.1 27.1 19.1 25.75 19.1 24.4C19.1234 23.9441 19.0519 23.4883 18.8901 23.0614C18.7283 22.6346 18.4797 22.2459 18.16 21.92C18.66 21.83 19.16 21.77 19.59 21.67C21.0058 21.4255 22.3022 20.7228 23.28 19.67C23.9569 18.8524 24.4024 17.8682 24.57 16.82C24.8015 15.7582 24.8286 14.662 24.65 13.59C24.4869 12.6466 24.0644 11.7671 23.43 11.05C23.3748 11.0013 23.3365 10.9364 23.3203 10.8646C23.3041 10.7928 23.311 10.7177 23.34 10.65C23.7123 9.49752 23.6482 8.2484 23.16 7.14003C23.1316 7.09755 23.0948 7.0614 23.0517 7.03386C23.0087 7.00633 22.9605 6.988 22.91 6.98003C22.4295 6.94063 21.9477 7.03768 21.52 7.26003C20.79 7.61003 20.08 8.00003 19.36 8.36003C19.2277 8.43874 19.0715 8.46714 18.92 8.44003C16.7108 7.85951 14.3892 7.85951 12.18 8.44003C12.091 8.46451 11.9978 8.47004 11.9065 8.45625C11.8152 8.44247 11.7278 8.40969 11.65 8.36003C10.74 7.73425 9.72331 7.28012 8.65 7.02003C8.01 6.86003 7.85 6.96003 7.65 7.58003C7.31977 8.60065 7.31977 9.69941 7.65 10.72C7.65906 10.7713 7.65659 10.8239 7.64275 10.8741C7.62891 10.9242 7.60406 10.9707 7.57 11.01C6.91257 11.7537 6.49136 12.6762 6.36 13.66C6.00003 15.6699 6.42219 17.7413 7.54 19.45C8.18679 20.3069 9.07473 20.9511 10.09 21.3C10.9209 21.6091 11.788 21.8107 12.67 21.9H12.77C12.56 22.28 12.34 22.67 12.14 23.07C12.0657 23.2015 12.0245 23.3491 12.02 23.5C12.02 23.81 11.83 23.94 11.56 24.01C11.1275 24.1843 10.6628 24.2637 10.197 24.243C9.73121 24.2223 9.27529 24.1019 8.86 23.89C8.41431 23.6133 8.04615 23.2279 7.79 22.77C7.4151 22.0531 6.77151 21.5137 6 21.27C5.69874 21.2199 5.39126 21.2199 5.09 21.27C4.9 21.27 4.82 21.42 4.96 21.59C5.07702 21.7603 5.22248 21.9091 5.39 22.03C6.09235 22.4834 6.63182 23.149 6.93 23.93C7.09743 24.4014 7.35946 24.8336 7.7 25.2C8.31108 25.7342 9.09849 26.0228 9.91 26.01C10.57 26.01 11.24 26.01 11.91 26.01V26.51C11.91 27.17 11.91 27.83 11.91 28.51C11.91 29.19 11.45 29.51 10.77 29.31C8.23434 28.4305 5.9916 26.8663 4.29014 24.7907C2.58869 22.715 1.49494 20.209 1.13 17.55C1.13 17.22 1.04 16.9 1 16.55V14.48L1.06 14.23C1.18551 13.2811 1.36244 12.3397 1.59 11.41C2.42337 8.46235 4.19659 5.86748 6.64 4.02003C9.01028 2.16412 11.911 1.11312 14.92 1.02003C17.5407 0.903272 20.1437 1.50365 22.4485 2.75651C24.7533 4.00936 26.6727 5.86723 28 8.13003C28.8967 9.60512 29.5042 11.2376 29.79 12.94C29.87 13.45 29.94 13.94 30.01 14.48L30 16.52Z" stroke="white" stroke-width="2" stroke-miterlimit="10"/>
</g>
<defs>
<clipPath id="clip0_520_1857">
<rect width="31" height="30.32" fill="white"/>
</clipPath>
</defs>
</svg>
