<svg id="Camada_1" data-name="Camada 1" xmlns="http://www.w3.org/2000/svg" viewBox="0 0 29 28.32"><defs><style>.cls-1{fill:#fff;}</style></defs><path class="cls-1" d="M31,17.86c-.08.53-.13,1.06-.23,1.59a14.41,14.41,0,0,1-5.32,8.83,14,14,0,0,1-4.25,2.3c-.66.23-1.1-.08-1.1-.79,0-1.35,0-2.7,0-4.05a3.3,3.3,0,0,0-.94-2.48c.5-.09,1-.15,1.43-.25a6.56,6.56,0,0,0,3.69-2,5.94,5.94,0,0,0,1.29-2.85,8.56,8.56,0,0,0,.08-3.23,5.16,5.16,0,0,0-1.22-2.54.35.35,0,0,1-.09-.4,4.94,4.94,0,0,0-.18-3.51.37.37,0,0,0-.25-.16,2.56,2.56,0,0,0-1.39.28c-.73.35-1.44.74-2.16,1.1a.64.64,0,0,1-.44.08,13.26,13.26,0,0,0-6.74,0,.66.66,0,0,1-.53-.08,9.06,9.06,0,0,0-3-1.34c-.64-.16-.8-.06-1,.56a5.1,5.1,0,0,0,0,3.14.35.35,0,0,1-.08.29A5,5,0,0,0,7.36,15a8,8,0,0,0,1.18,5.79,5.39,5.39,0,0,0,2.55,1.85,10.41,10.41,0,0,0,2.58.6l.1,0c-.21.38-.43.77-.63,1.17a.93.93,0,0,0-.12.43c0,.31-.19.44-.46.51a3.26,3.26,0,0,1-2.7-.12,3.1,3.1,0,0,1-1.07-1.12A3.06,3.06,0,0,0,7,22.61a2.77,2.77,0,0,0-.91,0c-.19,0-.27.15-.13.32a1.8,1.8,0,0,0,.43.44,3.93,3.93,0,0,1,1.54,1.9,3.67,3.67,0,0,0,.77,1.27,3.28,3.28,0,0,0,2.21.81c.66,0,1.33,0,2,0v.5c0,.66,0,1.32,0,2s-.46,1-1.14.8A14.54,14.54,0,0,1,2.13,18.89c0-.33-.09-.65-.13-1V15.82l.06-.25a26.45,26.45,0,0,1,.53-2.82A14.06,14.06,0,0,1,7.64,5.36a14.14,14.14,0,0,1,8.28-3A14.42,14.42,0,0,1,29,9.47a13.59,13.59,0,0,1,1.79,4.81c.08.51.15,1,.22,1.54Z" transform="translate(-2 -2.34)"/></svg>